<svg xmlns="http://www.w3.org/2000/svg" width="860" height="560" viewBox="0 0 860 560">
<rect x="0" y="0" width="860" height="560" fill="white" />
<line x1="92.0" y1="482.0" x2="830.0" y2="482.0" stroke="#222" stroke-width="1.4" />
<line x1="92.0" y1="62.0" x2="92.0" y2="482.0" stroke="#222" stroke-width="1.4" />
<line x1="92.0" y1="62.0" x2="92.0" y2="482.0" stroke="#e5e5e5" stroke-width="0.8" />
<line x1="92.0" y1="482.0" x2="92.0" y2="488.0" stroke="#222" stroke-width="1.0" />
<text x="92.0" y="507.0" font-family="Arial, sans-serif" font-size="12" text-anchor="middle" fill="#222">1e-3</text>
<line x1="256.8" y1="62.0" x2="256.8" y2="482.0" stroke="#e5e5e5" stroke-width="0.8" />
<line x1="256.8" y1="482.0" x2="256.8" y2="488.0" stroke="#222" stroke-width="1.0" />
<text x="256.8" y="507.0" font-family="Arial, sans-serif" font-size="12" text-anchor="middle" fill="#222">1e-2</text>
<line x1="421.7" y1="62.0" x2="421.7" y2="482.0" stroke="#e5e5e5" stroke-width="0.8" />
<line x1="421.7" y1="482.0" x2="421.7" y2="488.0" stroke="#222" stroke-width="1.0" />
<text x="421.7" y="507.0" font-family="Arial, sans-serif" font-size="12" text-anchor="middle" fill="#222">1e-1</text>
<line x1="586.5" y1="62.0" x2="586.5" y2="482.0" stroke="#e5e5e5" stroke-width="0.8" />
<line x1="586.5" y1="482.0" x2="586.5" y2="488.0" stroke="#222" stroke-width="1.0" />
<text x="586.5" y="507.0" font-family="Arial, sans-serif" font-size="12" text-anchor="middle" fill="#222">1</text>
<line x1="751.4" y1="62.0" x2="751.4" y2="482.0" stroke="#e5e5e5" stroke-width="0.8" />
<line x1="751.4" y1="482.0" x2="751.4" y2="488.0" stroke="#222" stroke-width="1.0" />
<text x="751.4" y="507.0" font-family="Arial, sans-serif" font-size="12" text-anchor="middle" fill="#222">1e1</text>
<line x1="92.0" y1="482.0" x2="830.0" y2="482.0" stroke="#e5e5e5" stroke-width="0.8" />
<line x1="86.0" y1="482.0" x2="92.0" y2="482.0" stroke="#222" stroke-width="1.0" />
<text x="80.0" y="486.0" font-family="Arial, sans-serif" font-size="12" text-anchor="end" fill="#222">1e-5</text>
<line x1="92.0" y1="400.4" x2="830.0" y2="400.4" stroke="#e5e5e5" stroke-width="0.8" />
<line x1="86.0" y1="400.4" x2="92.0" y2="400.4" stroke="#222" stroke-width="1.0" />
<text x="80.0" y="404.4" font-family="Arial, sans-serif" font-size="12" text-anchor="end" fill="#222">1e-4</text>
<line x1="92.0" y1="318.8" x2="830.0" y2="318.8" stroke="#e5e5e5" stroke-width="0.8" />
<line x1="86.0" y1="318.8" x2="92.0" y2="318.8" stroke="#222" stroke-width="1.0" />
<text x="80.0" y="322.8" font-family="Arial, sans-serif" font-size="12" text-anchor="end" fill="#222">1e-3</text>
<line x1="92.0" y1="237.2" x2="830.0" y2="237.2" stroke="#e5e5e5" stroke-width="0.8" />
<line x1="86.0" y1="237.2" x2="92.0" y2="237.2" stroke="#222" stroke-width="1.0" />
<text x="80.0" y="241.2" font-family="Arial, sans-serif" font-size="12" text-anchor="end" fill="#222">1e-2</text>
<line x1="92.0" y1="155.5" x2="830.0" y2="155.5" stroke="#e5e5e5" stroke-width="0.8" />
<line x1="86.0" y1="155.5" x2="92.0" y2="155.5" stroke="#222" stroke-width="1.0" />
<text x="80.0" y="159.5" font-family="Arial, sans-serif" font-size="12" text-anchor="end" fill="#222">1e-1</text>
<line x1="92.0" y1="73.9" x2="830.0" y2="73.9" stroke="#e5e5e5" stroke-width="0.8" />
<line x1="86.0" y1="73.9" x2="92.0" y2="73.9" stroke="#222" stroke-width="1.0" />
<text x="80.0" y="77.9" font-family="Arial, sans-serif" font-size="12" text-anchor="end" fill="#222">1</text>
<text x="430.0" y="34.0" font-family="Arial, sans-serif" font-size="18" text-anchor="middle" fill="#222">Finite C-D interface as a momentum filter</text>
<text x="430.0" y="536.0" font-family="Arial, sans-serif" font-size="14" text-anchor="middle" fill="#222">dimensionless wall thickness zeta = omega L_w / C</text>
<text x="24" y="300" font-family="Arial, sans-serif" font-size="14" text-anchor="middle" fill="#222" transform="rotate(-90 24 300)">P_forward / P_delta,forward</text>
<line x1="636.1" y1="62.0" x2="636.1" y2="482.0" stroke="#555" stroke-width="1.4" stroke-dasharray="4 6" />
<text x="645.1" y="198.2" font-family="Arial, sans-serif" font-size="12" fill="#333" transform="rotate(-90 645.1 198.2)">D/C=2 coherence: |k_C-k_D| L_w ~= 1</text>
<polyline points="92.0,73.9 256.8,73.9 421.7,73.9 500.3,74.0 586.5,74.5 665.2,80.1 751.4,174.8 830.0,220.6" fill="none" stroke="#1f77b4" stroke-width="3" stroke-linejoin="round" stroke-linecap="round" />
<circle cx="92.0" cy="73.9" r="4.2" fill="white" stroke="#1f77b4" stroke-width="2" />
<circle cx="256.8" cy="73.9" r="4.2" fill="white" stroke="#1f77b4" stroke-width="2" />
<circle cx="421.7" cy="73.9" r="4.2" fill="white" stroke="#1f77b4" stroke-width="2" />
<circle cx="500.3" cy="74.0" r="4.2" fill="white" stroke="#1f77b4" stroke-width="2" />
<circle cx="586.5" cy="74.5" r="4.2" fill="white" stroke="#1f77b4" stroke-width="2" />
<circle cx="665.2" cy="80.1" r="4.2" fill="white" stroke="#1f77b4" stroke-width="2" />
<circle cx="751.4" cy="174.8" r="4.2" fill="white" stroke="#1f77b4" stroke-width="2" />
<circle cx="830.0" cy="220.6" r="4.2" fill="white" stroke="#1f77b4" stroke-width="2" />
<polyline points="92.0,73.9 256.8,73.9 421.7,73.9 500.3,74.0 586.5,74.7 665.2,80.7 751.4,175.3 830.0,221.3" fill="none" stroke="#1f77b4" stroke-width="3" stroke-dasharray="9 7" stroke-linejoin="round" stroke-linecap="round" />
<line x1="530.0" y1="84.0" x2="574.0" y2="84.0" stroke="#1f77b4" stroke-width="3.0" />
<text x="584.0" y="88.0" font-family="Arial, sans-serif" font-size="12" text-anchor="start" fill="#222">square wall: transfer matrix</text>
<line x1="530.0" y1="102.0" x2="574.0" y2="102.0" stroke="#1f77b4" stroke-width="2.4" stroke-dasharray="8 6" />
<text x="584.0" y="106.0" font-family="Arial, sans-serif" font-size="12" text-anchor="start" fill="#222">square wall: Born filter</text>
<polyline points="92.0,73.9 256.8,73.9 421.7,74.0 500.3,74.5 586.5,80.5 665.2,129.8 751.4,435.0 830.0,1342.9" fill="none" stroke="#d62728" stroke-width="3" stroke-linejoin="round" stroke-linecap="round" />
<circle cx="92.0" cy="73.9" r="4.2" fill="white" stroke="#d62728" stroke-width="2" />
<circle cx="256.8" cy="73.9" r="4.2" fill="white" stroke="#d62728" stroke-width="2" />
<circle cx="421.7" cy="74.0" r="4.2" fill="white" stroke="#d62728" stroke-width="2" />
<circle cx="500.3" cy="74.5" r="4.2" fill="white" stroke="#d62728" stroke-width="2" />
<circle cx="586.5" cy="80.5" r="4.2" fill="white" stroke="#d62728" stroke-width="2" />
<circle cx="665.2" cy="129.8" r="4.2" fill="white" stroke="#d62728" stroke-width="2" />
<circle cx="751.4" cy="435.0" r="4.2" fill="white" stroke="#d62728" stroke-width="2" />
<circle cx="830.0" cy="1342.9" r="4.2" fill="white" stroke="#d62728" stroke-width="2" />
<polyline points="92.0,73.9 256.8,73.9 421.7,74.0 500.3,74.6 586.5,81.1 665.2,130.4 751.4,435.5 830.0,1471.1" fill="none" stroke="#d62728" stroke-width="3" stroke-dasharray="9 7" stroke-linejoin="round" stroke-linecap="round" />
<line x1="530.0" y1="128.0" x2="574.0" y2="128.0" stroke="#d62728" stroke-width="3.0" />
<text x="584.0" y="132.0" font-family="Arial, sans-serif" font-size="12" text-anchor="start" fill="#222">smooth sech^2 wall: transfer matrix</text>
<line x1="530.0" y1="146.0" x2="574.0" y2="146.0" stroke="#d62728" stroke-width="2.4" stroke-dasharray="8 6" />
<text x="584.0" y="150.0" font-family="Arial, sans-serif" font-size="12" text-anchor="start" fill="#222">smooth sech^2 wall: Born filter</text>
<polyline points="92.0,73.9 256.8,73.9 421.7,73.9 500.3,73.7 586.5,73.3 665.2,73.3 751.4,73.3 830.0,73.3" fill="none" stroke="#2ca02c" stroke-width="3" stroke-linejoin="round" stroke-linecap="round" />
<circle cx="92.0" cy="73.9" r="4.2" fill="white" stroke="#2ca02c" stroke-width="2" />
<circle cx="256.8" cy="73.9" r="4.2" fill="white" stroke="#2ca02c" stroke-width="2" />
<circle cx="421.7" cy="73.9" r="4.2" fill="white" stroke="#2ca02c" stroke-width="2" />
<circle cx="500.3" cy="73.7" r="4.2" fill="white" stroke="#2ca02c" stroke-width="2" />
<circle cx="586.5" cy="73.3" r="4.2" fill="white" stroke="#2ca02c" stroke-width="2" />
<circle cx="665.2" cy="73.3" r="4.2" fill="white" stroke="#2ca02c" stroke-width="2" />
<circle cx="751.4" cy="73.3" r="4.2" fill="white" stroke="#2ca02c" stroke-width="2" />
<circle cx="830.0" cy="73.3" r="4.2" fill="white" stroke="#2ca02c" stroke-width="2" />
<polyline points="92.0,73.9 256.8,73.9 421.7,73.9 500.3,73.9 586.5,73.9 665.2,73.9 751.4,73.9 830.0,73.9" fill="none" stroke="#2ca02c" stroke-width="3" stroke-dasharray="9 7" stroke-linejoin="round" stroke-linecap="round" />
<line x1="530.0" y1="172.0" x2="574.0" y2="172.0" stroke="#2ca02c" stroke-width="3.0" />
<text x="584.0" y="176.0" font-family="Arial, sans-serif" font-size="12" text-anchor="start" fill="#222">smooth wall, xi=1e-3: transfer matrix</text>
<line x1="530.0" y1="190.0" x2="574.0" y2="190.0" stroke="#2ca02c" stroke-width="2.4" stroke-dasharray="8 6" />
<text x="584.0" y="194.0" font-family="Arial, sans-serif" font-size="12" text-anchor="start" fill="#222">smooth wall, xi=1e-3: Born filter</text>
</svg>